<?xml version="1.0" standalone="no"?>
<!DOCTYPE svg PUBLIC "-//W3C//DTD SVG 20010904//EN"
 "http://www.w3.org/TR/2001/REC-SVG-20010904/DTD/svg10.dtd">
<svg version="1.0" xmlns="http://www.w3.org/2000/svg"
 width="500.000000pt" height="500.000000pt" viewBox="0 0 500.000000 500.000000"
 preserveAspectRatio="xMidYMid meet">

<g transform="translate(0.000000,500.000000) scale(0.100000,-0.100000)"
fill="#000000" stroke="none">
<path d="M1440 2845 l0 -1315 545 0 545 0 0 655 0 655 515 0 515 0 0 660 0
660 -1060 0 -1060 0 0 -1315z m1060 655 l0 -630 -515 0 -515 0 0 630 0 630
515 0 515 0 0 -630z m1030 0 l0 -630 -497 2 -498 3 -3 628 -2 627 500 0 500 0
0 -630z m-1030 -1300 l0 -640 -515 0 -515 0 0 640 0 640 515 0 515 0 0 -640z"/>
<path d="M2964 1276 c-10 -8 -16 -17 -12 -21 8 -8 48 13 48 25 0 14 -13 12
-36 -4z"/>
<path d="M2390 1200 c0 -73 2 -80 20 -80 18 0 20 7 20 80 0 73 -2 80 -20 80
-18 0 -20 -7 -20 -80z"/>
<path d="M1490 1195 l0 -75 45 0 c33 0 45 4 45 15 0 10 -10 15 -30 15 -20 0
-30 5 -30 15 0 9 9 15 25 15 16 0 25 6 25 15 0 9 -9 15 -25 15 -16 0 -25 6
-25 15 0 10 10 15 30 15 20 0 30 5 30 15 0 11 -12 15 -45 15 l-45 0 0 -75z"/>
<path d="M2500 1195 c0 -68 2 -75 20 -75 14 0 20 7 20 24 0 19 7 26 31 31 18
4 35 16 41 31 17 36 -13 64 -69 64 l-43 0 0 -75z m75 25 c0 -8 -8 -16 -17 -18
-13 -2 -18 3 -18 18 0 15 5 20 18 18 9 -2 17 -10 17 -18z"/>
<path d="M1610 1178 c0 -44 4 -58 14 -58 10 0 16 14 18 43 2 34 7 42 23 42 16
0 21 -8 23 -42 4 -53 32 -62 32 -10 0 41 13 62 34 54 11 -4 16 -19 16 -47 0
-33 3 -40 20 -40 17 0 20 7 20 39 0 23 -8 48 -19 62 -17 22 -22 23 -50 12 -17
-6 -33 -8 -36 -3 -3 4 -25 8 -50 8 l-45 -1 0 -59z"/>
<path d="M1839 1224 c-7 -8 -12 -28 -12 -44 0 -45 18 -59 74 -58 l49 0 0 58 0
58 -49 0 c-32 1 -54 -4 -62 -14z m66 -44 c0 -16 -6 -26 -18 -28 -19 -4 -32 20
-23 44 9 25 41 13 41 -16z"/>
<path d="M1980 1179 c0 -45 3 -59 14 -59 10 0 16 14 18 43 2 34 7 42 23 42 16
0 21 -8 23 -42 2 -29 8 -43 18 -43 18 0 20 93 2 108 -7 5 -32 10 -55 9 l-43 0
0 -58z"/>
<path d="M2120 1191 c0 -27 6 -53 13 -59 6 -6 33 -10 60 -10 l47 0 0 59 c0 52
-2 59 -19 59 -16 0 -20 -8 -23 -42 -2 -35 -7 -43 -23 -43 -16 0 -21 8 -23 43
-2 28 -8 42 -18 42 -10 0 -14 -13 -14 -49z"/>
<path d="M2276 1224 c-9 -8 -16 -28 -16 -44 0 -50 44 -75 91 -50 32 18 23 33
-15 26 -20 -4 -37 -2 -41 4 -4 6 9 10 34 10 37 0 41 2 41 25 0 41 -63 61 -94
29z m59 -24 c4 -6 -5 -10 -20 -10 -15 0 -24 4 -20 10 3 6 12 10 20 10 8 0 17
-4 20 -10z"/>
<path d="M2646 1221 c-20 -22 -21 -65 -1 -84 9 -9 32 -15 60 -15 l45 1 0 57 0
57 -44 1 c-30 0 -50 -5 -60 -17z m63 -25 c14 -17 4 -46 -15 -46 -18 0 -28 24
-20 45 7 19 20 19 35 1z"/>
<path d="M2789 1224 c-16 -20 -16 -69 1 -89 9 -11 24 -15 42 -13 18 3 28 0 28
-8 0 -21 -17 -25 -44 -13 -34 16 -44 5 -21 -21 23 -26 59 -26 85 0 16 16 20
33 20 89 l0 69 -49 0 c-32 1 -54 -4 -62 -14z m66 -44 c0 -29 -32 -41 -41 -16
-9 24 4 48 23 44 12 -2 18 -12 18 -28z"/>
<path d="M2937 1222 c-36 -40 -9 -102 44 -102 25 0 49 16 49 33 0 5 -16 6 -35
3 -22 -4 -35 -3 -35 4 0 5 18 10 40 10 46 0 53 17 20 50 -25 25 -62 26 -83 2z
m58 -22 c3 -5 -3 -10 -14 -10 -12 0 -21 5 -21 10 0 6 6 10 14 10 8 0 18 -4 21
-10z"/>
<path d="M3060 1219 c-14 -24 2 -49 31 -49 10 0 21 -5 24 -11 5 -7 -5 -8 -29
-4 -37 7 -46 -1 -24 -23 14 -14 57 -16 76 -3 20 12 11 44 -16 57 -37 18 -39
27 -4 19 33 -7 41 2 20 23 -20 20 -66 15 -78 -9z"/>
<path d="M2280 1007 c0 -21 -4 -23 -32 -19 -22 3 -35 0 -45 -14 -31 -42 -3
-85 53 -81 l34 2 0 68 c0 37 -2 67 -5 67 -3 0 -5 -10 -5 -23z m-10 -46 c12
-23 5 -47 -17 -55 -21 -9 -43 12 -43 39 0 36 43 47 60 16z"/>
<path d="M2840 960 c0 -40 4 -70 10 -70 6 0 10 30 10 70 0 40 -4 70 -10 70 -6
0 -10 -30 -10 -70z"/>
<path d="M1490 955 c0 -37 4 -65 10 -65 6 0 10 13 10 29 0 23 5 31 23 34 l22
4 -22 2 c-17 1 -23 7 -23 25 0 19 6 26 28 29 22 3 20 4 -10 6 l-38 1 0 -65z"/>
<path d="M1893 1002 c-6 -11 -8 -23 -3 -28 5 -5 10 -25 12 -44 2 -26 8 -36 23
-38 18 -2 18 -2 3 8 -12 7 -18 23 -18 45 0 24 5 35 18 38 15 4 15 5 0 6 -9 0
-18 8 -20 16 -2 13 -5 12 -15 -3z"/>
<path d="M2370 955 l0 -65 35 0 c22 0 43 8 55 20 43 43 10 110 -55 110 l-35 0
0 -65z m71 45 c13 -8 19 -21 19 -46 0 -28 -5 -36 -26 -44 -41 -16 -44 -13 -44
45 0 59 9 67 51 45z"/>
<path d="M1580 939 c0 -27 5 -49 10 -49 6 0 10 14 10 32 0 17 7 39 15 48 15
16 14 18 -10 18 -23 0 -25 -4 -25 -49z"/>
<path d="M1661 976 c-16 -19 -10 -66 10 -79 26 -16 68 0 75 30 4 14 2 33 -3
42 -13 21 -66 26 -82 7z m67 -27 c3 -30 -18 -52 -42 -43 -16 6 -23 54 -9 68
16 16 48 1 51 -25z"/>
<path d="M1770 938 c0 -26 5 -48 10 -48 6 0 10 15 10 34 0 37 21 62 45 52 10
-3 15 -19 15 -46 0 -22 5 -40 10 -40 13 0 13 56 0 81 -8 14 -20 18 -50 17
l-40 -1 0 -49z"/>
<path d="M1972 978 c-7 -7 -12 -24 -12 -38 0 -14 5 -31 12 -38 17 -17 53 -15
68 3 15 18 7 19 -20 3 -16 -10 -23 -10 -37 5 -16 16 -15 17 25 17 38 0 42 2
42 24 0 34 -52 50 -78 24z m58 -13 c11 -13 7 -15 -25 -15 -32 0 -36 2 -25 15
7 8 18 15 25 15 7 0 18 -7 25 -15z"/>
<path d="M2082 935 c1 -42 2 -44 5 -13 8 72 63 79 63 8 0 -22 5 -40 10 -40 15
0 12 76 -4 89 -7 6 -28 10 -45 9 -31 -2 -31 -3 -29 -53z"/>
<path d="M2512 978 c-7 -7 -12 -24 -12 -38 0 -31 17 -50 45 -50 25 0 52 16 42
26 -3 4 -13 2 -20 -5 -8 -6 -22 -9 -31 -5 -28 11 -18 24 18 24 41 0 51 12 36
40 -12 23 -59 27 -78 8z m66 -15 c2 -9 -7 -13 -27 -13 -30 0 -39 9 -24 24 11
10 46 3 51 -11z"/>
<path d="M2610 986 c0 -15 41 -96 48 -96 11 0 46 89 38 97 -3 3 -13 -14 -22
-38 l-18 -43 -14 42 c-7 23 -18 42 -23 42 -5 0 -9 -2 -9 -4z"/>
<path d="M2732 978 c-7 -7 -12 -24 -12 -38 0 -31 17 -50 45 -50 25 0 52 16 42
26 -3 4 -13 2 -20 -5 -8 -6 -22 -9 -31 -5 -28 11 -18 24 18 24 41 0 51 12 36
40 -12 23 -59 27 -78 8z m66 -15 c2 -9 -7 -13 -27 -13 -30 0 -39 9 -24 24 11
10 46 3 51 -11z"/>
<path d="M2891 976 c-16 -19 -10 -66 10 -79 26 -16 68 0 75 30 4 14 2 33 -3
42 -13 21 -66 26 -82 7z m67 -27 c3 -30 -18 -52 -42 -43 -16 6 -23 54 -9 68
16 16 48 1 51 -25z"/>
<path d="M3000 919 c0 -37 5 -71 10 -74 6 -4 10 6 10 24 0 28 2 30 28 25 48
-10 76 32 52 77 -9 15 -20 19 -55 17 l-45 -1 0 -68z m78 49 c30 -30 0 -78 -37
-58 -32 17 -21 70 14 70 6 0 16 -5 23 -12z"/>
<path d="M3142 978 c-7 -7 -12 -24 -12 -38 0 -14 5 -31 12 -38 17 -17 53 -15
68 3 15 18 7 19 -20 3 -16 -10 -23 -10 -37 5 -16 16 -15 17 25 17 38 0 42 2
42 24 0 34 -52 50 -78 24z m58 -13 c11 -13 7 -15 -25 -15 -32 0 -36 2 -25 15
7 8 18 15 25 15 7 0 18 -7 25 -15z"/>
<path d="M3251 935 l1 -50 8 39 c4 22 16 45 26 53 17 12 16 13 -9 11 -26 -2
-27 -5 -26 -53z"/>
</g>
</svg>
